<?xml version="1.0" encoding="UTF-8"?><svg id="Layer_1" xmlns="http://www.w3.org/2000/svg" viewBox="0 0 50 50"><defs><style>.cls-1{fill:#2e2c2d;}</style></defs><path class="cls-1" d="M34.49,45.52h-6.24v-12.41c0-1.29-.39-2.5-1.11-3.41-.67-.84-1.53-1.31-2.42-1.31h-2.95c-.9,0-1.76,.47-2.42,1.31-.71,.91-1.11,2.12-1.11,3.41v12.41h-6.4c-2.53,0-4.59-2.51-4.59-5.59V22.86c0-1.49,.5-2.94,1.38-3.99,.11-.18,.23-.35,.37-.51l.03-.04L21.04,7.3c.62-.69,1.43-1.06,2.29-1.06,.86,0,1.67,.4,2.28,1.1l11.64,11.03,.03,.04s.05,.07,.08,.1c1.09,1.07,1.71,2.65,1.71,4.35v17.07c0,3.08-2.06,5.59-4.59,5.59Zm-4.47-1.77h4.47c1.53,0,2.82-1.75,2.82-3.82V22.86c0-1.23-.45-2.4-1.21-3.12l-.05-.05-.04-.06s-.03-.04-.04-.05l-11.64-11.02-.03-.04c-.27-.33-.62-.51-.97-.51-.35,0-.7,.17-.97,.49l-.03,.04-12.01,11.02c-.07,.09-.14,.18-.19,.28l-.04,.07-.05,.06c-.63,.73-1,1.79-1,2.89v17.07c0,2.07,1.29,3.82,2.82,3.82h4.63v-10.64c0-3.58,2.38-6.49,5.3-6.49h2.95c2.92,0,5.3,2.91,5.3,6.49v10.64Z"/></svg>